<?xml version="1.0" encoding="windows-1252"?>
<!-- Generator: Adobe Illustrator 19.0.0, SVG Export Plug-In . SVG Version: 6.00 Build 0)  -->
<svg version="1.1" id="Capa_1" xmlns="http://www.w3.org/2000/svg" xmlns:xlink="http://www.w3.org/1999/xlink" x="0px" y="0px" viewBox="0 0 538.055 538.055" style="enable-background:new 0 0 538.055 538.055;" xml:space="preserve">
<g>
	<path d="M503.644,125.413c0.371-3.778-1.148-7.485-4.053-9.924c-2.905-2.415-6.815-3.24-10.486-2.212l-40.066,11.442   c-2.583,0.741-4.806,2.344-6.325,4.567l-36.252,53.254c36.025,12.543,65.558,26.436,87.725,38.297L503.644,125.413z"/>
	<path d="M418.227,347.984l26.053,24.941c2.128,2.056,4.974,3.192,7.927,3.192h40.066c3.372,0,6.552-1.47,8.716-4.029   c2.188-2.571,3.121-5.966,2.583-9.266l-8.142-49.572C475.57,323.951,449.613,336.374,418.227,347.984z"/>
	<path d="M232.076,402.326h-68.762l-5.775-16.129c-8.824-0.61-17.205-1.411-25.18-2.415l12.136,33.861   c1.638,4.556,5.943,7.568,10.773,7.568h85.86c5.309,0,9.9-3.635,11.144-8.776l7.604-31.96c-7.879,0.765-15.854,1.459-23.997,1.949   L232.076,402.326z"/>
	<path d="M533.416,258.179c-5.512-4.053-136.519-99.562-335.476-99.562C34.339,158.617,0,217.754,0,267.373   S34.339,376.13,197.952,376.13c198.968,0,329.976-95.485,335.464-99.562c2.917-2.14,4.639-5.56,4.639-9.195   C538.043,263.75,536.309,260.331,533.416,258.179z M392.138,226.494c-2.248,5.906-8.824,8.884-14.73,6.684   c-52.896-19.931-107.955-30.023-163.661-30.023c-94.66,0-135.288,18.054-152.685,33.191c-2.176,1.889-4.854,2.822-7.521,2.822   c-3.204,0-6.373-1.327-8.644-3.934c-4.149-4.77-3.647-12.004,1.124-16.165c29.604-25.766,86.027-38.823,167.714-38.823   c58.503,0,116.277,10.593,171.731,31.481C391.361,213.975,394.374,220.563,392.138,226.494z"/>
</g>
<g>
</g>
<g>
</g>
<g>
</g>
<g>
</g>
<g>
</g>
<g>
</g>
<g>
</g>
<g>
</g>
<g>
</g>
<g>
</g>
<g>
</g>
<g>
</g>
<g>
</g>
<g>
</g>
<g>
</g>
</svg>